# Blender v2.79 (sub 0) OBJ File: 'car2.blend'
# www.blender.org
mtllib car2.mtl
o Car
v -4.975000 2.500500 -5.000000
v -4.500000 4.999500 3.500000
v -4.500000 4.999500 -4.500000
v -4.975000 2.500500 5.000000
v -4.750000 -4.375500 4.750000
v 4.975000 -2.500500 5.000000
v -4.975000 -2.500500 5.000000
v 4.750000 -4.375500 4.750000
v -4.750000 -4.375500 1.313960
v -4.000000 -4.375500 -1.313960
v -4.000000 -4.375500 1.313960
v -4.750000 -4.375500 -1.313960
v 4.000000 -4.375500 3.688730
v 4.750000 -4.375500 3.688730
v 4.000000 -4.375500 1.311270
v 4.000000 -4.375500 -1.311270
v -4.000000 -4.375500 3.686040
v -4.750000 -4.375500 3.686040
v 4.750000 -4.375500 -1.311270
v 4.750000 -4.375500 1.311270
v 4.000000 -4.375500 -3.688730
v 4.750000 -4.375500 -4.750000
v 4.750000 -4.375500 -3.688730
v -4.000000 -4.375500 -3.686040
v -4.750000 -4.375500 -4.750000
v -4.750000 -4.375500 -3.686040
v 4.975000 -2.286480 -3.381680
v 4.975000 -2.500500 -5.000000
v 4.975000 2.500500 -5.000000
v 4.975000 -2.500500 -3.574390
v 4.975000 -2.032780 -2.811870
v 4.975000 -2.032780 -2.188130
v 4.975000 -2.032780 2.188130
v 4.975000 -2.286480 -1.618320
v 4.975000 -2.286480 1.618320
v 4.975000 -2.500500 -1.425610
v 4.975000 -2.500500 1.425610
v 4.975000 2.500500 5.000000
v 4.975000 -2.032780 2.811870
v 4.975000 -2.286480 3.381680
v 4.975000 -2.500500 3.574390
v 4.500000 4.999500 -4.500000
v 3.875000 4.999500 -3.875000
v 4.500000 4.999500 3.500000
v -3.875000 4.999500 -3.875000
v -3.875000 4.999500 2.875000
v 3.875000 4.999500 2.875000
v -4.975000 -2.500500 -5.000000
v 4.873870 -3.343210 3.991780
v 4.945060 -2.750000 3.799040
v 4.799440 -3.963530 3.926580
v 4.873870 -3.343210 -3.991780
v 4.945060 -2.750000 -3.799040
v 4.799440 -3.963530 -3.926580
v 4.945060 -2.750000 -1.200960
v 4.873870 -3.343210 1.008220
v 4.873870 -3.343210 -1.008220
v 4.945060 -2.750000 1.200960
v 4.799440 -3.963530 -1.073410
v 4.799440 -3.963530 1.073410
v -4.975000 -2.496300 -3.614720
v -4.975000 -2.500500 -3.617140
v -4.975000 -2.129680 -3.110100
v -4.975000 -2.000000 -2.500000
v -4.975000 -2.129680 -1.889890
v -4.975000 -2.129680 1.889890
v -4.975000 -2.496300 -1.385280
v -4.975000 -2.500500 1.382860
v -4.975000 -2.500500 -1.382860
v -4.975000 -2.496300 1.385280
v -4.975000 -2.000000 2.500000
v -4.975000 -2.129680 3.110100
v -4.975000 -2.496300 3.614720
v -4.975000 -2.500500 3.617140
v -4.765060 -4.250000 3.799040
v -4.836240 -3.656790 3.991780
v -4.910680 -3.036480 3.926580
v -4.765060 -4.250000 -3.799040
v -4.836240 -3.656790 -3.991780
v -4.910680 -3.036480 -3.926580
v -4.765060 -4.250000 -1.200960
v -4.836240 -3.656790 1.008220
v -4.836240 -3.656790 -1.008220
v -4.765060 -4.250000 1.200960
v -4.910680 -3.036480 -1.073410
v -4.910680 -3.036480 1.073410
v -3.875000 -4.375000 -3.875000
v -3.875000 -4.375000 2.875000
v 3.875000 -4.375000 2.875000
v 3.875000 -4.375000 -3.875000
v -5.000000 -2.129680 1.889890
v -5.000000 -2.000000 2.500000
v -5.000000 -2.496300 1.385280
v -5.000000 -4.967220 2.811870
v -4.000000 -4.967220 2.188130
v -4.000000 -4.967220 2.811870
v -5.000000 -4.967220 2.188130
v -5.000000 -4.250000 1.200960
v -5.000000 -3.656790 1.008220
v -4.000000 -4.713530 1.618320
v -5.000000 -4.713530 1.618320
v -5.000000 -2.129680 3.110100
v -5.000000 -4.713530 3.381680
v -4.000000 -4.713530 3.381680
v -5.000000 -3.036480 1.073410
v -5.000000 -3.656790 3.991780
v -5.000000 -3.036480 3.926580
v -5.000000 -2.496300 3.614720
v -5.000000 -4.250000 3.799040
v -5.000000 -2.129680 -3.110100
v -5.000000 -2.000000 -2.500000
v -5.000000 -2.496300 -3.614720
v -5.000000 -4.967220 -2.188130
v -4.000000 -4.967220 -2.811870
v -4.000000 -4.967220 -2.188130
v -5.000000 -4.967220 -2.811870
v -5.000000 -4.250000 -3.799040
v -5.000000 -3.656790 -3.991780
v -5.000000 -2.496300 -1.385280
v -5.000000 -3.036480 -1.073410
v -5.000000 -4.250000 -1.200960
v -5.000000 -4.713530 -1.618320
v -4.000000 -4.713530 -1.618320
v -4.000000 -4.713530 -3.381680
v -5.000000 -4.713530 -3.381680
v -5.000000 -3.036480 -3.926580
v -5.000000 -2.129680 -1.889890
v -5.000000 -3.656790 -1.008220
v 4.000000 -5.000000 2.500000
v 5.000000 -4.870320 1.889890
v 5.000000 -5.000000 2.500000
v 4.000000 -4.870320 1.889890
v 5.000000 -2.032780 2.811870
v 5.000000 -2.032780 2.188130
v 5.000000 -3.343210 1.008220
v 5.000000 -2.750000 1.200960
v 5.000000 -3.963530 3.926580
v 5.000000 -3.343210 3.991780
v 5.000000 -4.503700 3.614720
v 4.000000 -4.503700 3.614720
v 5.000000 -4.503700 1.385280
v 4.000000 -4.503700 1.385280
v 5.000000 -3.963530 1.073410
v 5.000000 -2.286480 1.618320
v 5.000000 -4.870320 3.110100
v 5.000000 -2.286480 3.381680
v 5.000000 -2.750000 3.799040
v 4.000000 -4.870320 3.110100
v 4.000000 -5.000000 -2.500000
v 5.000000 -4.870320 -3.110100
v 5.000000 -5.000000 -2.500000
v 4.000000 -4.870320 -3.110100
v 5.000000 -2.032780 -2.188130
v 5.000000 -2.032780 -2.811870
v 5.000000 -3.343210 -3.991780
v 5.000000 -2.750000 -3.799040
v 5.000000 -3.963530 -1.073410
v 5.000000 -3.343210 -1.008220
v 5.000000 -2.286480 -1.618320
v 5.000000 -2.750000 -1.200960
v 5.000000 -4.503700 -3.614720
v 4.000000 -4.503700 -3.614720
v 5.000000 -3.963530 -3.926580
v 5.000000 -2.286480 -3.381680
v 4.000000 -4.870320 -1.889890
v 5.000000 -4.870320 -1.889890
v 5.000000 -4.503700 -1.385280
v 4.000000 -4.503700 -1.385280
vt 0.036106 0.919013
vt 0.138645 0.949699
vt 0.042138 0.949699
vt 0.156740 0.919013
vt 0.159455 0.835865
vt 0.276772 0.858684
vt 0.156740 0.858684
vt 0.274058 0.835865
vt 0.408153 0.769960
vt 0.417201 0.738257
vt 0.417201 0.769960
vt 0.408153 0.738257
vt 0.522762 0.811413
vt 0.513714 0.798610
vt 0.522762 0.798610
vt 0.513714 0.769928
vt 0.513714 0.738289
vt 0.417201 0.798577
vt 0.408153 0.811413
vt 0.408153 0.798577
vt 0.522762 0.738289
vt 0.522762 0.769928
vt 0.513714 0.709607
vt 0.522762 0.696804
vt 0.522762 0.709607
vt 0.417201 0.709640
vt 0.408153 0.696804
vt 0.408153 0.709640
vt 0.377884 0.861266
vt 0.397406 0.858684
vt 0.397406 0.919014
vt 0.380208 0.858684
vt 0.371010 0.864327
vt 0.363485 0.864327
vt 0.310693 0.864327
vt 0.356611 0.861266
vt 0.317567 0.861266
vt 0.354287 0.858684
vt 0.319891 0.858684
vt 0.276772 0.919013
vt 0.303168 0.864327
vt 0.296294 0.861266
vt 0.293970 0.858684
vt 0.391374 0.949700
vt 0.383835 0.957240
vt 0.294867 0.949700
vt 0.403136 0.949758
vt 0.504167 0.957298
vt 0.410676 0.957297
vt 0.049677 0.957239
vt 0.131105 0.957239
vt 0.511707 0.949758
vt 0.302406 0.957239
vt 0.170010 0.961713
vt 0.271041 0.954174
vt 0.263502 0.961713
vt 0.162470 0.954173
vt 0.400121 0.835865
vt 0.517438 0.858685
vt 0.514723 0.835866
vt 0.288934 0.848445
vt 0.291260 0.855653
vt 0.279788 0.835903
vt 0.289721 0.840908
vt 0.292590 0.835903
vt 0.385244 0.848445
vt 0.394390 0.835903
vt 0.382919 0.855653
vt 0.384457 0.840909
vt 0.381588 0.835903
vt 0.351577 0.855653
vt 0.324926 0.848445
vt 0.349252 0.848445
vt 0.322601 0.855653
vt 0.350038 0.840909
vt 0.324140 0.840908
vt 0.352907 0.835903
vt 0.321271 0.835903
vt 0.517437 0.919014
vt 0.052817 0.858734
vt 0.036106 0.858684
vt 0.052649 0.858443
vt 0.058905 0.863157
vt 0.066265 0.864721
vt 0.073625 0.863157
vt 0.119222 0.863157
vt 0.079712 0.858734
vt 0.112799 0.858152
vt 0.079736 0.858157
vt 0.113135 0.858734
vt 0.126582 0.864722
vt 0.133942 0.863157
vt 0.140029 0.858734
vt 0.140060 0.858443
vt 0.142561 0.837221
vt 0.154054 0.835862
vt 0.144782 0.844461
vt 0.141220 0.835677
vt 0.143887 0.851986
vt 0.038768 0.836048
vt 0.050166 0.837395
vt 0.047965 0.844576
vt 0.051496 0.835863
vt 0.048853 0.852039
vt 0.081908 0.837092
vt 0.108318 0.844230
vt 0.084213 0.844234
vt 0.110621 0.837088
vt 0.080556 0.835582
vt 0.111972 0.835577
vt 0.083435 0.851703
vt 0.109098 0.851699
vt 0.302982 0.810600
vt 0.384415 0.697505
vt 0.384415 0.810600
vt 0.302982 0.697505
vt 0.209485 0.697505
vt 0.128053 0.810599
vt 0.128053 0.697504
vt 0.209485 0.810599
vt 0.302982 0.616072
vt 0.209485 0.616072
vt 0.034556 0.697504
vt 0.034556 0.810599
vt 0.375947 0.663841
vt 0.369787 0.666032
vt 0.375792 0.663609
vt 0.369832 0.666307
vt 0.380572 0.659009
vt 0.380320 0.658854
vt 0.363359 0.626357
vt 0.369702 0.637376
vt 0.365740 0.637411
vt 0.372920 0.627362
vt 0.383497 0.639553
vt 0.382154 0.646549
vt 0.380953 0.640304
vt 0.383904 0.646582
vt 0.373154 0.638898
vt 0.379926 0.632531
vt 0.375313 0.641328
vt 0.380235 0.638836
vt 0.363238 0.665772
vt 0.363164 0.666046
vt 0.353946 0.630783
vt 0.362447 0.639155
vt 0.380349 0.658798
vt 0.383106 0.652886
vt 0.382219 0.652651
vt 0.349690 0.650565
vt 0.353194 0.657097
vt 0.352303 0.657618
vt 0.351900 0.650253
vt 0.389207 0.617958
vt 0.393117 0.599563
vt 0.393117 0.609176
vt 0.389207 0.590780
vt 0.382063 0.624391
vt 0.382062 0.584348
vt 0.372920 0.581377
vt 0.363359 0.582382
vt 0.355034 0.621550
vt 0.355033 0.587189
vt 0.349383 0.613773
vt 0.349383 0.594967
vt 0.347384 0.604370
vt 0.357023 0.662977
vt 0.357172 0.662702
vt 0.357217 0.662748
vt 0.375266 0.641383
vt 0.373114 0.638953
vt 0.360589 0.641747
vt 0.362490 0.639207
vt 0.349404 0.640398
vt 0.353798 0.639142
vt 0.352971 0.641181
vt 0.360538 0.641701
vt 0.459296 0.672665
vt 0.452717 0.672038
vt 0.459251 0.672382
vt 0.452643 0.672304
vt 0.465786 0.670105
vt 0.465603 0.669844
vt 0.455036 0.632621
vt 0.459947 0.644107
vt 0.455995 0.643572
vt 0.464548 0.634218
vt 0.474907 0.648813
vt 0.471836 0.657759
vt 0.471615 0.649218
vt 0.473946 0.658229
vt 0.442757 0.664233
vt 0.442985 0.664055
vt 0.443007 0.664110
vt 0.440741 0.658062
vt 0.441641 0.657896
vt 0.441279 0.644140
vt 0.444918 0.643660
vt 0.443982 0.645186
vt 0.445966 0.636250
vt 0.452358 0.644769
vt 0.449909 0.647014
vt 0.463106 0.646156
vt 0.471612 0.640206
vt 0.464758 0.648859
vt 0.471065 0.647309
vt 0.464703 0.648899
vt 0.449951 0.647075
vt 0.481439 0.625806
vt 0.486490 0.607626
vt 0.485896 0.617253
vt 0.483116 0.598590
vt 0.473887 0.631807
vt 0.476359 0.591707
vt 0.467387 0.588168
vt 0.457750 0.588584
vt 0.446996 0.627294
vt 0.449117 0.592884
vt 0.441817 0.619156
vt 0.442978 0.600324
vt 0.440396 0.609617
vt 0.465656 0.669801
vt 0.470929 0.665007
vt 0.470074 0.664427
vt 0.446843 0.669314
vt 0.447017 0.669105
vt 0.442213 0.651714
vt 0.440396 0.651616
vt 0.064191 0.611242
vt 0.074104 0.618805
vt 0.065149 0.622240
vt 0.067504 0.609999
vt 0.063587 0.582355
vt 0.057059 0.582313
vt 0.063633 0.582089
vt 0.057121 0.582583
vt 0.077567 0.594409
vt 0.073666 0.589031
vt 0.074113 0.588673
vt 0.076239 0.594984
vt 0.044468 0.606361
vt 0.045539 0.597013
vt 0.047417 0.605640
vt 0.043867 0.596823
vt 0.050336 0.611665
vt 0.048431 0.615001
vt 0.057478 0.609043
vt 0.056573 0.607926
vt 0.080019 0.611091
vt 0.069791 0.607744
vt 0.079834 0.601710
vt 0.077188 0.602038
vt 0.069445 0.584574
vt 0.069580 0.584360
vt 0.071457 0.586488
vt 0.071743 0.661294
vt 0.080019 0.644634
vt 0.077652 0.653843
vt 0.078436 0.635258
vt 0.063316 0.665697
vt 0.073176 0.627337
vt 0.053825 0.666291
vt 0.044914 0.662974
vt 0.055743 0.620848
vt 0.038122 0.656319
vt 0.046584 0.623402
vt 0.034624 0.647477
vt 0.039256 0.629461
vt 0.035025 0.637977
vt 0.076936 0.608305
vt 0.070505 0.606428
vt 0.060290 0.610765
vt 0.047000 0.590196
vt 0.046476 0.589876
vt 0.067472 0.609947
vt 0.049122 0.587475
vt 0.051007 0.585120
vt 0.051165 0.585346
vt 0.139669 0.613817
vt 0.150713 0.620872
vt 0.141666 0.624796
vt 0.142876 0.612032
vt 0.135865 0.583918
vt 0.129511 0.586039
vt 0.135821 0.583640
vt 0.129658 0.586278
vt 0.153983 0.591896
vt 0.148285 0.586986
vt 0.148645 0.586471
vt 0.152458 0.592753
vt 0.122032 0.610845
vt 0.122590 0.603396
vt 0.124465 0.610157
vt 0.121139 0.603393
vt 0.123738 0.593484
vt 0.124695 0.590651
vt 0.124919 0.590811
vt 0.122081 0.596625
vt 0.122647 0.596784
vt 0.156993 0.612488
vt 0.144844 0.609295
vt 0.157311 0.601543
vt 0.154003 0.602005
vt 0.142455 0.584127
vt 0.142513 0.583866
vt 0.145188 0.585289
vt 0.135871 0.613908
vt 0.132350 0.623854
vt 0.126913 0.615380
vt 0.125303 0.618462
vt 0.133023 0.612765
vt 0.131923 0.611846
vt 0.142834 0.611983
vt 0.145292 0.607806
vt 0.133039 0.612734
vt 0.149926 0.662915
vt 0.157311 0.646151
vt 0.155400 0.655317
vt 0.155328 0.636999
vt 0.141835 0.667628
vt 0.149794 0.629446
vt 0.132527 0.668644
vt 0.123610 0.665786
vt 0.116627 0.659548
vt 0.123456 0.626782
vt 0.112784 0.651009
vt 0.116522 0.633075
vt 0.112747 0.641645
vt 0.153442 0.609493
vn -0.9824 0.1867 0.0000
vn 0.0000 -0.1322 0.9912
vn 0.0000 -1.0000 0.0000
vn 1.0000 0.0000 0.0000
vn 0.0000 1.0000 0.0000
vn 0.0000 -0.1322 -0.9912
vn 0.9929 -0.1192 0.0000
vn 0.9929 -0.1191 -0.0000
vn 0.0000 0.0000 1.0000
vn 0.0000 0.5146 0.8574
vn 0.9824 0.1867 0.0000
vn 0.0000 0.1962 -0.9806
vn 0.0000 0.0000 -1.0000
vn -1.0000 0.0000 0.0000
vn -1.0000 0.0001 0.0000
vn -0.9929 -0.1191 0.0000
vn -0.9929 -0.1192 0.0000
vn 0.0000 0.9781 -0.2079
vn 0.0000 0.8090 -0.5878
vn 0.0000 -0.3090 -0.9511
vn 0.0000 -0.9135 -0.4067
vn 0.0000 -0.6691 -0.7431
vn 0.0000 0.9781 0.2079
vn 0.0000 -0.9135 0.4067
vn 0.0000 0.4992 -0.8665
vn 0.0000 0.5000 -0.8660
vn 0.0002 0.5000 -0.8660
vn 0.0000 0.1045 -0.9945
vn 0.0000 0.1045 0.9945
vn 0.0000 0.4992 0.8665
vn 0.0002 0.5000 0.8660
vn 0.0000 0.5000 0.8660
vn 0.0000 0.8090 0.5878
vn 0.0000 -0.6691 0.7431
vn 0.0000 -0.3090 0.9511
vn 0.0000 -0.9781 -0.2079
vn 0.0000 0.3090 -0.9511
vn 0.0000 -0.1045 0.9945
vn 0.0000 -0.5000 0.8660
vn 0.0000 -0.8090 -0.5878
vn 0.0000 -0.1045 -0.9945
vn 0.0000 0.9135 -0.4067
vn 0.0000 0.6691 -0.7431
vn 0.0001 0.6691 -0.7431
vn 0.0000 -0.5000 -0.8660
vn 0.0000 -0.8090 0.5878
vn 0.0000 -0.9781 0.2079
vn 0.0000 0.3090 0.9511
vn 0.0000 0.6691 0.7431
vn 0.0001 0.6691 0.7432
vn 0.0000 0.9135 0.4067
usemtl None
s off
f 1/1/1 2/2/1 3/3/1
f 2/2/1 1/1/1 4/4/1
f 5/5/2 6/6/2 7/7/2
f 6/6/2 5/5/2 8/8/2
f 9/9/3 10/10/3 11/11/3
f 10/10/3 9/9/3 12/12/3
f 8/13/3 13/14/3 14/15/3
f 11/11/3 15/16/3 13/14/3
f 15/16/3 11/11/3 16/17/3
f 11/11/3 13/14/3 17/18/3
f 8/13/3 17/18/3 13/14/3
f 5/19/3 17/18/3 8/13/3
f 17/18/3 5/19/3 18/20/3
f 15/16/3 19/21/3 20/22/3
f 19/21/3 15/16/3 16/17/3
f 21/23/3 22/24/3 23/25/3
f 10/10/3 16/17/3 11/11/3
f 16/17/3 10/10/3 21/23/3
f 24/26/3 21/23/3 10/10/3
f 21/23/3 24/26/3 22/24/3
f 25/27/3 24/26/3 26/28/3
f 24/26/3 25/27/3 22/24/3
f 27/29/4 28/30/4 29/31/4
f 28/30/4 27/29/4 30/32/4
f 29/31/4 31/33/4 27/29/4
f 29/31/4 32/34/4 31/33/4
f 33/35/4 32/34/4 29/31/4
f 32/34/4 33/35/4 34/36/4
f 34/36/4 35/37/4 36/38/4
f 36/38/4 35/37/4 37/39/4
f 34/36/4 33/35/4 35/37/4
f 38/40/4 33/35/4 29/31/4
f 33/35/4 38/40/4 39/41/4
f 39/41/4 38/40/4 40/42/4
f 6/6/4 40/42/4 38/40/4
f 40/42/4 6/6/4 41/43/4
f 42/44/5 43/45/5 44/46/5
f 42/47/5 45/48/5 43/49/5
f 45/50/5 3/3/5 46/51/5
f 3/52/5 45/48/5 42/47/5
f 47/53/5 44/46/5 43/45/5
f 46/54/5 44/55/5 47/56/5
f 46/54/5 2/57/5 44/55/5
f 2/2/5 46/51/5 3/3/5
f 22/58/6 48/59/6 28/30/6
f 48/59/6 22/58/6 25/60/6
f 6/6/7 49/61/7 50/62/7
f 49/61/8 6/6/8 8/63/8
f 6/6/8 50/62/8 41/43/8
f 51/64/7 8/63/7 14/65/7
f 8/63/8 51/64/8 49/61/8
f 28/30/8 52/66/8 22/67/8
f 28/30/7 53/68/7 52/66/7
f 53/68/8 28/30/8 30/32/8
f 54/69/8 22/67/8 52/66/8
f 22/67/7 54/69/7 23/70/7
f 55/71/7 56/72/7 57/73/7
f 58/74/8 55/71/8 36/38/8
f 55/71/7 58/74/7 56/72/7
f 58/74/7 36/38/7 37/39/7
f 56/72/8 59/75/8 57/73/8
f 60/76/8 59/75/8 56/72/8
f 59/75/7 60/76/7 19/77/7
f 19/77/7 60/76/7 20/78/7
f 7/7/9 38/40/9 4/4/9
f 38/40/9 7/7/9 6/6/9
f 4/4/10 44/55/10 2/57/10
f 44/55/10 4/4/10 38/40/10
f 44/46/11 29/31/11 42/44/11
f 29/31/11 44/46/11 38/40/11
f 29/31/12 3/52/12 42/47/12
f 3/52/12 29/31/12 1/79/12
f 28/30/13 1/79/13 29/31/13
f 1/79/13 28/30/13 48/59/13
f 61/80/14 48/81/14 62/82/14
f 63/83/14 48/81/14 61/80/14
f 48/81/14 63/83/14 1/1/14
f 64/84/14 1/1/14 63/83/14
f 65/85/14 1/1/14 64/84/14
f 66/86/14 65/85/14 67/87/14
f 68/88/15 67/87/15 69/89/15
f 70/90/14 67/87/14 68/88/14
f 66/86/14 67/87/14 70/90/14
f 65/85/14 66/86/14 1/1/14
f 4/4/14 66/86/14 71/91/14
f 4/4/14 71/91/14 72/92/14
f 7/7/14 73/93/14 74/94/14
f 7/7/14 72/92/14 73/93/14
f 4/4/14 72/92/14 7/7/14
f 66/86/14 4/4/14 1/1/14
f 75/95/16 5/96/16 76/97/16
f 5/96/17 75/95/17 18/98/17
f 7/7/16 76/97/16 5/96/16
f 76/97/16 7/7/16 77/99/16
f 77/99/17 7/7/17 74/94/17
f 25/100/16 78/101/16 79/102/16
f 78/101/16 25/100/16 26/103/16
f 79/102/16 48/81/16 25/100/16
f 80/104/16 48/81/16 79/102/16
f 48/81/17 80/104/17 62/82/17
f 81/105/16 82/106/16 83/107/16
f 84/108/16 81/105/16 12/109/16
f 81/105/16 84/108/16 82/106/16
f 84/108/16 12/109/16 9/110/16
f 82/106/16 85/111/16 83/107/16
f 86/112/16 85/111/16 82/106/16
f 85/111/16 86/112/16 69/89/16
f 69/89/17 86/112/17 68/88/17
f 46/113/4 87/114/4 45/115/4
f 87/114/4 46/113/4 88/116/4
f 89/117/14 43/118/14 90/119/14
f 43/118/14 89/117/14 47/120/14
f 87/121/5 89/117/5 90/122/5
f 89/117/5 87/121/5 88/116/5
f 89/117/13 46/113/13 47/120/13
f 46/113/13 89/117/13 88/116/13
f 87/123/9 43/118/9 45/124/9
f 43/118/9 87/123/9 90/119/9
f 91/125/18 71/126/18 66/127/18
f 71/126/18 91/125/18 92/128/18
f 93/129/19 66/127/19 70/130/19
f 66/127/19 93/129/19 91/125/19
f 94/131/3 95/132/3 96/133/3
f 95/132/3 94/131/3 97/134/3
f 98/135/20 82/136/20 84/137/20
f 82/136/20 98/135/20 99/138/20
f 97/134/21 100/139/21 95/132/21
f 100/139/21 97/134/21 101/140/21
f 11/141/22 100/139/22 9/142/22
f 9/142/22 98/135/22 84/137/22
f 9/142/22 101/140/22 98/135/22
f 101/140/22 9/142/22 100/139/22
f 92/128/23 72/143/23 71/126/23
f 72/143/23 92/128/23 102/144/23
f 103/145/24 96/133/24 104/146/24
f 96/133/24 103/145/24 94/131/24
f 68/147/25 93/129/25 70/130/25
f 105/148/26 68/147/26 86/149/26
f 68/147/27 105/148/27 93/129/27
f 99/138/28 86/149/28 82/136/28
f 86/149/28 99/138/28 105/148/28
f 106/150/29 77/151/29 107/152/29
f 77/151/29 106/150/29 76/153/29
f 98/154/14 105/155/14 99/156/14
f 98/154/14 93/157/14 105/155/14
f 101/158/14 93/157/14 98/154/14
f 101/158/14 91/159/14 93/157/14
f 97/134/14 91/159/14 101/158/14
f 97/134/14 92/160/14 91/159/14
f 94/131/14 92/160/14 97/134/14
f 94/131/14 102/161/14 92/160/14
f 103/162/14 102/161/14 94/131/14
f 103/162/14 108/163/14 102/161/14
f 109/164/14 108/163/14 103/162/14
f 109/164/14 107/165/14 108/163/14
f 107/165/14 109/164/14 106/166/14
f 108/167/30 74/168/30 73/169/30
f 107/152/31 74/168/31 108/167/31
f 74/168/32 107/152/32 77/151/32
f 102/144/33 73/169/33 72/143/33
f 73/169/33 102/144/33 108/167/33
f 11/170/4 95/132/4 100/171/4
f 11/170/4 96/133/4 95/132/4
f 17/172/4 96/133/4 11/170/4
f 96/133/4 17/172/4 104/173/4
f 109/174/34 18/175/34 75/176/34
f 103/145/34 18/175/34 109/174/34
f 104/146/34 18/175/34 103/145/34
f 18/175/34 104/146/34 17/177/34
f 109/174/35 76/153/35 106/150/35
f 76/153/35 109/174/35 75/176/35
f 110/178/18 64/179/18 63/180/18
f 64/179/18 110/178/18 111/181/18
f 112/182/19 63/180/19 61/183/19
f 63/180/19 112/182/19 110/178/19
f 113/184/3 114/185/3 115/186/3
f 114/185/3 113/184/3 116/187/3
f 117/188/20 79/189/20 78/190/20
f 79/189/20 117/188/20 118/191/20
f 119/192/30 69/193/30 67/194/30
f 120/195/31 69/193/31 119/192/31
f 69/193/32 120/195/32 85/196/32
f 121/197/34 12/198/34 81/199/34
f 122/200/34 12/198/34 121/197/34
f 123/201/34 12/198/34 122/200/34
f 12/198/34 123/201/34 10/202/34
f 116/187/21 124/203/21 114/185/21
f 124/203/21 116/187/21 125/204/21
f 24/205/22 124/203/22 26/206/22
f 26/206/22 117/188/22 78/190/22
f 26/206/22 125/204/22 117/188/22
f 125/204/22 26/206/22 124/203/22
f 24/207/4 114/185/4 124/203/4
f 24/207/4 115/186/4 114/185/4
f 10/208/4 115/186/4 24/207/4
f 115/186/4 10/208/4 123/201/4
f 117/209/14 126/210/14 118/211/14
f 117/209/14 112/212/14 126/210/14
f 125/213/14 112/212/14 117/209/14
f 125/213/14 110/214/14 112/212/14
f 116/187/14 110/214/14 125/213/14
f 116/187/14 111/215/14 110/214/14
f 113/184/14 111/215/14 116/187/14
f 113/184/14 127/216/14 111/215/14
f 122/217/14 127/216/14 113/184/14
f 122/217/14 119/218/14 127/216/14
f 121/219/14 119/218/14 122/217/14
f 121/219/14 120/220/14 119/218/14
f 120/220/14 121/219/14 128/221/14
f 122/200/24 115/186/24 123/201/24
f 115/186/24 122/200/24 113/184/24
f 62/222/25 112/182/25 61/183/25
f 126/223/26 62/222/26 80/224/26
f 62/222/27 126/223/27 112/182/27
f 118/191/28 80/224/28 79/189/28
f 80/224/28 118/191/28 126/223/28
f 127/225/33 67/194/33 65/226/33
f 67/194/33 127/225/33 119/192/33
f 111/181/23 65/226/23 64/179/23
f 65/226/23 111/181/23 127/225/23
f 121/197/35 83/227/35 128/228/35
f 83/227/35 121/197/35 81/199/35
f 128/228/29 85/196/29 120/195/29
f 85/196/29 128/228/29 83/227/29
f 129/229/36 130/230/36 131/231/36
f 130/230/36 129/229/36 132/232/36
f 33/233/5 133/234/5 134/235/5
f 133/234/5 33/233/5 39/236/5
f 135/237/37 58/238/37 136/239/37
f 58/238/37 135/237/37 56/240/37
f 137/241/38 49/242/38 51/243/38
f 49/242/38 137/241/38 138/244/38
f 14/245/39 137/241/39 51/243/39
f 14/245/39 139/246/39 137/241/39
f 139/246/39 14/245/39 140/247/39
f 13/248/39 140/247/39 14/245/39
f 132/232/40 141/249/40 130/230/40
f 141/249/40 132/232/40 142/250/40
f 143/251/41 56/240/41 135/237/41
f 56/240/41 143/251/41 60/252/41
f 35/253/42 134/235/42 144/254/42
f 134/235/42 35/253/42 33/233/42
f 144/254/43 37/255/43 35/253/43
f 136/239/44 37/255/44 144/254/44
f 37/255/43 136/239/43 58/238/43
f 136/256/4 143/257/4 135/258/4
f 136/256/4 141/259/4 143/257/4
f 144/260/4 141/259/4 136/256/4
f 144/260/4 130/261/4 141/259/4
f 134/262/4 130/261/4 144/260/4
f 134/262/4 131/231/4 130/261/4
f 133/263/4 131/231/4 134/262/4
f 133/263/4 145/264/4 131/231/4
f 146/265/4 145/264/4 133/263/4
f 146/265/4 139/266/4 145/264/4
f 147/267/4 139/266/4 146/265/4
f 147/267/4 137/268/4 139/266/4
f 137/268/4 147/267/4 138/269/4
f 143/251/45 20/270/45 60/252/45
f 141/249/45 20/270/45 143/251/45
f 142/250/45 20/270/45 141/249/45
f 20/270/45 142/250/45 15/271/45
f 140/247/46 145/264/46 139/246/46
f 145/264/46 140/247/46 148/272/46
f 148/272/47 131/231/47 145/264/47
f 131/231/47 148/272/47 129/229/47
f 138/244/48 50/273/48 49/242/48
f 50/273/48 138/244/48 147/274/48
f 132/275/14 15/271/14 142/250/14
f 129/229/14 15/271/14 132/275/14
f 13/248/14 129/229/14 148/272/14
f 13/248/14 148/272/14 140/247/14
f 129/229/14 13/248/14 15/271/14
f 41/276/49 146/277/49 40/278/49
f 41/276/50 147/274/50 146/277/50
f 147/274/49 41/276/49 50/273/49
f 39/236/51 146/277/51 133/234/51
f 146/277/51 39/236/51 40/278/51
f 149/279/36 150/280/36 151/281/36
f 150/280/36 149/279/36 152/282/36
f 31/283/5 153/284/5 154/285/5
f 153/284/5 31/283/5 32/286/5
f 155/287/37 53/288/37 156/289/37
f 53/288/37 155/287/37 52/290/37
f 157/291/38 57/292/38 59/293/38
f 57/292/38 157/291/38 158/294/38
f 36/295/49 159/296/49 34/297/49
f 36/295/50 160/298/50 159/296/50
f 160/298/49 36/295/49 55/299/49
f 152/282/40 161/300/40 150/280/40
f 161/300/40 152/282/40 162/301/40
f 163/302/41 52/290/41 155/287/41
f 52/290/41 163/302/41 54/303/41
f 27/304/42 154/285/42 164/305/42
f 154/285/42 27/304/42 31/283/42
f 164/305/43 30/306/43 27/304/43
f 156/289/44 30/306/44 164/305/44
f 30/306/43 156/289/43 53/288/43
f 165/307/47 151/281/47 166/308/47
f 151/281/47 165/307/47 149/279/47
f 19/309/39 157/291/39 59/293/39
f 19/309/39 167/310/39 157/291/39
f 167/310/39 19/309/39 168/311/39
f 16/312/39 168/311/39 19/309/39
f 158/294/48 55/299/48 57/292/48
f 55/299/48 158/294/48 160/298/48
f 152/313/14 21/314/14 162/301/14
f 149/279/14 21/314/14 152/313/14
f 16/312/14 149/279/14 165/307/14
f 16/312/14 165/307/14 168/315/14
f 149/279/14 16/312/14 21/314/14
f 156/316/4 163/317/4 155/318/4
f 156/316/4 161/319/4 163/317/4
f 164/320/4 161/319/4 156/316/4
f 164/320/4 150/321/4 161/319/4
f 154/322/4 150/321/4 164/320/4
f 154/322/4 151/281/4 150/321/4
f 153/323/4 151/281/4 154/322/4
f 153/323/4 166/308/4 151/281/4
f 159/324/4 166/308/4 153/323/4
f 159/324/4 167/325/4 166/308/4
f 160/326/4 167/325/4 159/324/4
f 160/326/4 157/327/4 167/325/4
f 157/327/4 160/326/4 158/328/4
f 32/286/51 159/296/51 153/284/51
f 159/296/51 32/286/51 34/297/51
f 163/302/45 23/329/45 54/303/45
f 161/300/45 23/329/45 163/302/45
f 162/301/45 23/329/45 161/300/45
f 23/329/45 162/301/45 21/314/45
f 168/311/46 166/308/46 167/310/46
f 166/308/46 168/311/46 165/307/46
